<?xml version="1.0" encoding="UTF-8"?>
<svg width="154px" height="39px" viewBox="0 0 154 39" version="1.1" xmlns="http://www.w3.org/2000/svg" xmlns:xlink="http://www.w3.org/1999/xlink">
    <!-- Generator: Sketch 52.6 (67491) - http://www.bohemiancoding.com/sketch -->
    <title>logo-horizontal</title>
    <desc>Created with Sketch.</desc>
    <g id="Page-1" stroke="none" stroke-width="1" fill="none" fill-rule="evenodd">
        <g id="new-landing-3" transform="translate(-134.000000, -39.000000)">
            <g id="Header" transform="translate(133.000000, 27.000000)">
                <g id="logo-horizontal" transform="translate(0.648413, 11.401345)">
                    <path d="M62.6213579,28.2333292 L58.6686918,28.2333292 L51.5755513,10.1756013 L55.1762676,10.1756013 L60.6450248,24.7950512 L66.113782,10.1756013 L69.7144984,10.1756013 L62.6213579,28.2333292 Z M83.2780992,28.2333292 L80.4354283,28.2333292 L80.4354283,26.5006537 C79.4878714,27.5565028 77.8634881,28.5582059 75.8059359,28.5582059 C72.9903381,28.5582059 71.6096123,27.0962609 71.6096123,24.4160284 L71.6096123,15.1570434 L74.4522831,15.1570434 L74.4522831,23.3872523 C74.4522831,25.4177314 75.4810592,26.0404117 77.0783695,26.0404117 C78.5132414,26.0404117 79.7586019,25.2282201 80.4354283,24.3348092 L80.4354283,15.1570434 L83.2780992,15.1570434 L83.2780992,28.2333292 Z M86.147843,21.6816498 C86.147843,17.891422 88.9092947,14.8321668 92.7807416,14.8321668 C96.7063346,14.8321668 99.2241288,17.8372759 99.2241288,21.9523804 L99.2241288,22.6292067 L89.1258791,22.6292067 C89.3424636,24.6055398 90.8314816,26.2299231 93.2951297,26.2299231 C94.5675633,26.2299231 96.0836544,25.7155351 97.0041382,24.7950512 L98.3036449,26.663092 C97.0041382,27.9084525 95.0819513,28.5582059 92.997326,28.5582059 C89.071733,28.5582059 86.147843,25.8238273 86.147843,21.6816498 Z M92.7807416,17.1604495 C90.3441666,17.1604495 89.2341713,19.0284904 89.0988061,20.6258006 L96.4626771,20.6258006 C96.408531,19.0826365 95.3526819,17.1604495 92.7807416,17.1604495 Z M108.212383,17.6477645 L105.559224,17.6477645 L105.559224,28.2333292 L102.716553,28.2333292 L102.716553,17.6477645 L100.550709,17.6477645 L100.550709,15.1570434 L102.716553,15.1570434 L102.716553,14.426071 C102.716553,11.502181 104.449228,9.9048707 106.85873,9.9048707 C107.752141,9.9048707 108.564333,10.0943821 109.132867,10.4192588 L108.510187,12.503884 C108.18531,12.3143726 107.779214,12.2331535 107.373118,12.2331535 C106.263123,12.2331535 105.559224,12.964126 105.559224,14.426071 L105.559224,15.1570434 L108.212383,15.1570434 L108.212383,17.6477645 Z M116.280154,28.5582059 C112.137976,28.5582059 109.566036,25.4448045 109.566036,21.6816498 C109.566036,17.9455682 112.137976,14.8321668 116.280154,14.8321668 C120.476477,14.8321668 123.021344,17.9455682 123.021344,21.6816498 C123.021344,25.4448045 120.476477,28.5582059 116.280154,28.5582059 Z M116.280154,26.0404117 C118.716729,26.0404117 120.070381,24.0099326 120.070381,21.6816498 C120.070381,19.3804401 118.716729,17.3499609 116.280154,17.3499609 C113.870652,17.3499609 112.516999,19.3804401 112.516999,21.6816498 C112.516999,24.0099326 113.870652,26.0404117 116.280154,26.0404117 Z M128.733759,28.2333292 L125.891088,28.2333292 L125.891088,15.1570434 L128.733759,15.1570434 L128.733759,17.0792304 C129.708389,15.8338698 131.278626,14.8592398 132.984229,14.8592398 L132.984229,17.6748376 C132.740571,17.6206915 132.442768,17.5936184 132.090818,17.5936184 C130.899604,17.5936184 129.302293,18.4058101 128.733759,19.326294 L128.733759,28.2333292 Z M154.155358,28.2333292 L151.312687,28.2333292 L151.312687,19.7053168 C151.312687,18.2975179 150.690007,17.3499609 149.173916,17.3499609 C147.901482,17.3499609 146.710268,18.2433718 146.141734,19.0826365 L146.141734,28.2333292 L143.299063,28.2333292 L143.299063,19.7053168 C143.299063,18.2975179 142.676383,17.3499609 141.133219,17.3499609 C139.887858,17.3499609 138.723717,18.2433718 138.128109,19.1097095 L138.128109,28.2333292 L135.285439,28.2333292 L135.285439,15.1570434 L138.128109,15.1570434 L138.128109,16.9438651 C138.669571,16.1316734 140.402246,14.8321668 142.378579,14.8321668 C144.327839,14.8321668 145.519054,15.8067968 145.952222,17.2416687 C146.710268,16.0504543 148.442944,14.8321668 150.392204,14.8321668 C152.801705,14.8321668 154.155358,16.1316734 154.155358,18.7848329 L154.155358,28.2333292 Z" id="Vueform" fill="#000000" fill-rule="nonzero"></path>
                    <path d="M44.7811113,0.927219402 C44.6980635,0.794799533 44.5726554,0.7285896 44.4048871,0.7285896 L35.7028472,0.7285896 L22.6990579,23.3927368 L13.7423214,23.3927368 L22.5384097,38.7088294 C22.6274654,38.8502524 22.7485961,38.9209641 22.9018012,38.9209641 C23.0550066,38.9209641 23.177329,38.8488364 23.2687685,38.7045811 L44.7811113,1.36240153 C44.8641589,1.20469998 44.8641589,1.05963926 44.7811113,0.927219402 Z" id="Path-6" fill="#17C495"></path>
                    <path d="M1.02159099,0.927798045 C0.938889908,1.06060367 0.940258674,1.20699155 1.02569728,1.36696168 L11.9181727,20.2449386 L20.837819,20.2449386 L25.5724598,12.0606632 L16.6254564,12.0606632 L14.8536021,8.91286499 L27.3193346,8.90523549 L32.0372282,0.7285896 L1.39714426,0.7285896 C1.22947649,0.7285896 1.10429206,0.79499241 1.02159099,0.927798045 Z" id="Path-7" fill="#35495E"></path>
                </g>
            </g>
        </g>
    </g>
</svg>