<?xml version="1.0" encoding="UTF-8"?>
<svg width="110px" height="96px" viewBox="0 0 110 96" version="1.1" xmlns="http://www.w3.org/2000/svg" xmlns:xlink="http://www.w3.org/1999/xlink">
    <!-- Generator: Sketch 52.6 (67491) - http://www.bohemiancoding.com/sketch -->
    <title>logo</title>
    <desc>Created with Sketch.</desc>
    <g id="Page-1" stroke="none" stroke-width="1" fill="none" fill-rule="evenodd">
        <g id="logo">
            <path d="M109.436759,0.852795855 C109.229621,0.522512935 108.916827,0.35737148 108.498377,0.35737148 L86.7936655,0.35737148 L54.3594882,56.8865064 L32.0195095,56.8865064 L53.9587979,95.0880526 C54.1809216,95.4407914 54.4830467,95.6171609 54.8651727,95.6171609 C55.2472989,95.6171609 55.5523967,95.4372596 55.7804661,95.077457 L109.436759,1.93823132 C109.643897,1.54489057 109.643897,1.18307875 109.436759,0.852795855 Z" id="Path-6" fill="#0BBF9B"></path>
            <path d="M0.291340726,0.854239112 C0.0850668965,1.18548419 0.0884808867,1.55060627 0.301582694,1.9496053 L27.4697003,49.0352377 L49.7171683,49.0352377 L61.5263549,28.6219391 L39.2106528,28.6219391 L34.7912766,20.7706702 L65.8834271,20.7516407 L77.6508432,0.35737148 L1.22804932,0.35737148 C0.809850754,0.35737148 0.497614555,0.522994012 0.291340726,0.854239112 Z" id="Path-7" fill="#35495E"></path>
        </g>
    </g>
</svg>